<mxfile host="app.diagrams.net" modified="2023-08-12T07:27:01.346Z" agent="Mozilla/5.0 (Macintosh; Intel Mac OS X 10_15_7) AppleWebKit/537.36 (KHTML, like Gecko) Chrome/115.0.0.0 Safari/537.36" etag="kQEcqCe2ICtR3lT3pTz3" version="21.6.8" type="device">
  <diagram name="Page-1" id="nI2luKxmcoLUESW3IZcF">
    <mxGraphModel dx="1212" dy="660" grid="1" gridSize="10" guides="1" tooltips="1" connect="1" arrows="1" fold="1" page="1" pageScale="1" pageWidth="850" pageHeight="1100" math="0" shadow="0">
      <root>
        <mxCell id="0" />
        <mxCell id="1" parent="0" />
        <mxCell id="DSOuIaDj85ne6x_iDqN4-3" style="edgeStyle=orthogonalEdgeStyle;rounded=0;orthogonalLoop=1;jettySize=auto;html=1;entryX=0.5;entryY=0;entryDx=0;entryDy=0;" edge="1" parent="1" source="DSOuIaDj85ne6x_iDqN4-1" target="DSOuIaDj85ne6x_iDqN4-2">
          <mxGeometry relative="1" as="geometry" />
        </mxCell>
        <mxCell id="DSOuIaDj85ne6x_iDqN4-1" value="Loading screen" style="rounded=0;whiteSpace=wrap;html=1;" vertex="1" parent="1">
          <mxGeometry x="110" y="70" width="120" height="60" as="geometry" />
        </mxCell>
        <mxCell id="DSOuIaDj85ne6x_iDqN4-6" style="edgeStyle=orthogonalEdgeStyle;rounded=0;orthogonalLoop=1;jettySize=auto;html=1;entryX=0;entryY=0.5;entryDx=0;entryDy=0;" edge="1" parent="1" source="DSOuIaDj85ne6x_iDqN4-2" target="DSOuIaDj85ne6x_iDqN4-5">
          <mxGeometry relative="1" as="geometry" />
        </mxCell>
        <mxCell id="DSOuIaDj85ne6x_iDqN4-9" style="edgeStyle=orthogonalEdgeStyle;rounded=0;orthogonalLoop=1;jettySize=auto;html=1;entryX=0.5;entryY=0;entryDx=0;entryDy=0;" edge="1" parent="1" source="DSOuIaDj85ne6x_iDqN4-2" target="DSOuIaDj85ne6x_iDqN4-7">
          <mxGeometry relative="1" as="geometry" />
        </mxCell>
        <mxCell id="DSOuIaDj85ne6x_iDqN4-23" style="edgeStyle=orthogonalEdgeStyle;rounded=0;orthogonalLoop=1;jettySize=auto;html=1;exitX=0;exitY=0.5;exitDx=0;exitDy=0;" edge="1" parent="1" source="DSOuIaDj85ne6x_iDqN4-2">
          <mxGeometry relative="1" as="geometry">
            <mxPoint x="50" y="500" as="targetPoint" />
            <mxPoint x="50" y="270" as="sourcePoint" />
          </mxGeometry>
        </mxCell>
        <mxCell id="DSOuIaDj85ne6x_iDqN4-2" value="Menu" style="rounded=0;whiteSpace=wrap;html=1;" vertex="1" parent="1">
          <mxGeometry x="110" y="210" width="120" height="60" as="geometry" />
        </mxCell>
        <mxCell id="DSOuIaDj85ne6x_iDqN4-12" style="edgeStyle=orthogonalEdgeStyle;rounded=0;orthogonalLoop=1;jettySize=auto;html=1;entryX=0.5;entryY=0;entryDx=0;entryDy=0;" edge="1" parent="1" source="DSOuIaDj85ne6x_iDqN4-5" target="DSOuIaDj85ne6x_iDqN4-10">
          <mxGeometry relative="1" as="geometry" />
        </mxCell>
        <mxCell id="DSOuIaDj85ne6x_iDqN4-5" value="Game" style="ellipse;whiteSpace=wrap;html=1;" vertex="1" parent="1">
          <mxGeometry x="380" y="200" width="120" height="80" as="geometry" />
        </mxCell>
        <mxCell id="DSOuIaDj85ne6x_iDqN4-8" style="edgeStyle=orthogonalEdgeStyle;rounded=0;orthogonalLoop=1;jettySize=auto;html=1;" edge="1" parent="1" source="DSOuIaDj85ne6x_iDqN4-7">
          <mxGeometry relative="1" as="geometry">
            <mxPoint x="300" y="240" as="targetPoint" />
          </mxGeometry>
        </mxCell>
        <mxCell id="DSOuIaDj85ne6x_iDqN4-7" value="Settings&lt;br&gt;" style="rounded=0;whiteSpace=wrap;html=1;" vertex="1" parent="1">
          <mxGeometry x="110" y="350" width="120" height="60" as="geometry" />
        </mxCell>
        <mxCell id="DSOuIaDj85ne6x_iDqN4-33" style="edgeStyle=orthogonalEdgeStyle;rounded=0;orthogonalLoop=1;jettySize=auto;html=1;exitX=0.5;exitY=1;exitDx=0;exitDy=0;" edge="1" parent="1" source="DSOuIaDj85ne6x_iDqN4-10">
          <mxGeometry relative="1" as="geometry">
            <mxPoint x="439.57894736842104" y="540" as="targetPoint" />
          </mxGeometry>
        </mxCell>
        <mxCell id="DSOuIaDj85ne6x_iDqN4-10" value="Dungeon Rooms" style="rounded=0;whiteSpace=wrap;html=1;" vertex="1" parent="1">
          <mxGeometry x="380" y="360" width="120" height="60" as="geometry" />
        </mxCell>
        <mxCell id="DSOuIaDj85ne6x_iDqN4-17" style="edgeStyle=orthogonalEdgeStyle;rounded=0;orthogonalLoop=1;jettySize=auto;html=1;entryX=1;entryY=0.5;entryDx=0;entryDy=0;" edge="1" parent="1" source="DSOuIaDj85ne6x_iDqN4-13" target="DSOuIaDj85ne6x_iDqN4-10">
          <mxGeometry relative="1" as="geometry" />
        </mxCell>
        <mxCell id="DSOuIaDj85ne6x_iDqN4-13" value="Landmarks" style="swimlane;fontStyle=0;childLayout=stackLayout;horizontal=1;startSize=30;horizontalStack=0;resizeParent=1;resizeParentMax=0;resizeLast=0;collapsible=1;marginBottom=0;whiteSpace=wrap;html=1;" vertex="1" parent="1">
          <mxGeometry x="650" y="390" width="140" height="120" as="geometry" />
        </mxCell>
        <mxCell id="DSOuIaDj85ne6x_iDqN4-14" value="Wood scraps" style="text;strokeColor=none;fillColor=none;align=left;verticalAlign=middle;spacingLeft=4;spacingRight=4;overflow=hidden;points=[[0,0.5],[1,0.5]];portConstraint=eastwest;rotatable=0;whiteSpace=wrap;html=1;" vertex="1" parent="DSOuIaDj85ne6x_iDqN4-13">
          <mxGeometry y="30" width="140" height="30" as="geometry" />
        </mxCell>
        <mxCell id="DSOuIaDj85ne6x_iDqN4-16" value="Stones" style="text;strokeColor=none;fillColor=none;align=left;verticalAlign=middle;spacingLeft=4;spacingRight=4;overflow=hidden;points=[[0,0.5],[1,0.5]];portConstraint=eastwest;rotatable=0;whiteSpace=wrap;html=1;" vertex="1" parent="DSOuIaDj85ne6x_iDqN4-13">
          <mxGeometry y="60" width="140" height="30" as="geometry" />
        </mxCell>
        <mxCell id="DSOuIaDj85ne6x_iDqN4-32" value="Room shape" style="text;strokeColor=none;fillColor=none;align=left;verticalAlign=middle;spacingLeft=4;spacingRight=4;overflow=hidden;points=[[0,0.5],[1,0.5]];portConstraint=eastwest;rotatable=0;whiteSpace=wrap;html=1;" vertex="1" parent="DSOuIaDj85ne6x_iDqN4-13">
          <mxGeometry y="90" width="140" height="30" as="geometry" />
        </mxCell>
        <mxCell id="DSOuIaDj85ne6x_iDqN4-18" value="Items" style="swimlane;fontStyle=0;childLayout=stackLayout;horizontal=1;startSize=20;horizontalStack=0;resizeParent=1;resizeParentMax=0;resizeLast=0;collapsible=1;marginBottom=0;whiteSpace=wrap;html=1;" vertex="1" parent="1">
          <mxGeometry x="640" y="210" width="140" height="110" as="geometry" />
        </mxCell>
        <mxCell id="DSOuIaDj85ne6x_iDqN4-19" value="Ariadne&#39;s string" style="text;strokeColor=none;fillColor=none;align=left;verticalAlign=middle;spacingLeft=4;spacingRight=4;overflow=hidden;points=[[0,0.5],[1,0.5]];portConstraint=eastwest;rotatable=0;whiteSpace=wrap;html=1;" vertex="1" parent="DSOuIaDj85ne6x_iDqN4-18">
          <mxGeometry y="20" width="140" height="30" as="geometry" />
        </mxCell>
        <mxCell id="DSOuIaDj85ne6x_iDqN4-20" value="Sign" style="text;strokeColor=none;fillColor=none;align=left;verticalAlign=middle;spacingLeft=4;spacingRight=4;overflow=hidden;points=[[0,0.5],[1,0.5]];portConstraint=eastwest;rotatable=0;whiteSpace=wrap;html=1;" vertex="1" parent="DSOuIaDj85ne6x_iDqN4-18">
          <mxGeometry y="50" width="140" height="30" as="geometry" />
        </mxCell>
        <mxCell id="DSOuIaDj85ne6x_iDqN4-31" value="Stone" style="text;strokeColor=none;fillColor=none;align=left;verticalAlign=middle;spacingLeft=4;spacingRight=4;overflow=hidden;points=[[0,0.5],[1,0.5]];portConstraint=eastwest;rotatable=0;whiteSpace=wrap;html=1;" vertex="1" parent="DSOuIaDj85ne6x_iDqN4-18">
          <mxGeometry y="80" width="140" height="30" as="geometry" />
        </mxCell>
        <mxCell id="DSOuIaDj85ne6x_iDqN4-22" style="edgeStyle=orthogonalEdgeStyle;rounded=0;orthogonalLoop=1;jettySize=auto;html=1;entryX=1;entryY=0.25;entryDx=0;entryDy=0;exitX=0;exitY=0;exitDx=0;exitDy=0;" edge="1" parent="1" source="DSOuIaDj85ne6x_iDqN4-18" target="DSOuIaDj85ne6x_iDqN4-10">
          <mxGeometry relative="1" as="geometry" />
        </mxCell>
        <mxCell id="DSOuIaDj85ne6x_iDqN4-25" value="Lore information&lt;br&gt;" style="swimlane;whiteSpace=wrap;html=1;" vertex="1" parent="1">
          <mxGeometry x="10" y="500" width="320" height="80" as="geometry" />
        </mxCell>
        <mxCell id="DSOuIaDj85ne6x_iDqN4-27" value="About Adriane&#39;s string and &lt;br&gt;Percy Jackson Daedalus Labyrinth" style="text;html=1;align=center;verticalAlign=middle;resizable=0;points=[];autosize=1;strokeColor=none;fillColor=none;" vertex="1" parent="DSOuIaDj85ne6x_iDqN4-25">
          <mxGeometry x="75" y="25" width="210" height="40" as="geometry" />
        </mxCell>
        <mxCell id="DSOuIaDj85ne6x_iDqN4-28" style="edgeStyle=orthogonalEdgeStyle;rounded=0;orthogonalLoop=1;jettySize=auto;html=1;" edge="1" parent="1" source="DSOuIaDj85ne6x_iDqN4-26" target="DSOuIaDj85ne6x_iDqN4-5">
          <mxGeometry relative="1" as="geometry" />
        </mxCell>
        <mxCell id="DSOuIaDj85ne6x_iDqN4-26" value="Main Character: Theseus&amp;nbsp;" style="rounded=0;whiteSpace=wrap;html=1;" vertex="1" parent="1">
          <mxGeometry x="380" y="60" width="120" height="60" as="geometry" />
        </mxCell>
        <mxCell id="DSOuIaDj85ne6x_iDqN4-34" value="Win Condition: defeat the Minotaurus" style="rounded=0;whiteSpace=wrap;html=1;" vertex="1" parent="1">
          <mxGeometry x="390" y="540" width="120" height="60" as="geometry" />
        </mxCell>
        <mxCell id="DSOuIaDj85ne6x_iDqN4-37" style="edgeStyle=orthogonalEdgeStyle;rounded=0;orthogonalLoop=1;jettySize=auto;html=1;" edge="1" parent="1" source="DSOuIaDj85ne6x_iDqN4-35" target="DSOuIaDj85ne6x_iDqN4-19">
          <mxGeometry relative="1" as="geometry" />
        </mxCell>
        <mxCell id="DSOuIaDj85ne6x_iDqN4-35" value="Solve a math problem" style="rounded=0;whiteSpace=wrap;html=1;" vertex="1" parent="1">
          <mxGeometry x="650" y="60" width="120" height="60" as="geometry" />
        </mxCell>
        <mxCell id="DSOuIaDj85ne6x_iDqN4-42" style="edgeStyle=orthogonalEdgeStyle;rounded=0;orthogonalLoop=1;jettySize=auto;html=1;entryX=0.25;entryY=1;entryDx=0;entryDy=0;" edge="1" parent="1" source="DSOuIaDj85ne6x_iDqN4-41" target="DSOuIaDj85ne6x_iDqN4-34">
          <mxGeometry relative="1" as="geometry" />
        </mxCell>
        <mxCell id="DSOuIaDj85ne6x_iDqN4-41" value="Throw 10 stones at him" style="rounded=0;whiteSpace=wrap;html=1;" vertex="1" parent="1">
          <mxGeometry x="80" y="700" width="120" height="60" as="geometry" />
        </mxCell>
        <mxCell id="DSOuIaDj85ne6x_iDqN4-44" style="edgeStyle=orthogonalEdgeStyle;rounded=0;orthogonalLoop=1;jettySize=auto;html=1;entryX=1;entryY=0.5;entryDx=0;entryDy=0;" edge="1" parent="1" source="DSOuIaDj85ne6x_iDqN4-43" target="DSOuIaDj85ne6x_iDqN4-34">
          <mxGeometry relative="1" as="geometry" />
        </mxCell>
        <mxCell id="DSOuIaDj85ne6x_iDqN4-43" value="Tie him up (will use the string)" style="rounded=0;whiteSpace=wrap;html=1;" vertex="1" parent="1">
          <mxGeometry x="660" y="565" width="120" height="60" as="geometry" />
        </mxCell>
        <mxCell id="DSOuIaDj85ne6x_iDqN4-46" style="edgeStyle=orthogonalEdgeStyle;rounded=0;orthogonalLoop=1;jettySize=auto;html=1;entryX=0.676;entryY=1.053;entryDx=0;entryDy=0;entryPerimeter=0;" edge="1" parent="1" source="DSOuIaDj85ne6x_iDqN4-45" target="DSOuIaDj85ne6x_iDqN4-34">
          <mxGeometry relative="1" as="geometry" />
        </mxCell>
        <mxCell id="DSOuIaDj85ne6x_iDqN4-45" value="Use the signs to make a dummy and escape" style="rounded=0;whiteSpace=wrap;html=1;" vertex="1" parent="1">
          <mxGeometry x="520" y="690" width="120" height="60" as="geometry" />
        </mxCell>
      </root>
    </mxGraphModel>
  </diagram>
</mxfile>
